Coordinates
version=1
nRows=13
nColumns=36
inDegrees=yes

Units are S.I. units (second, meters, Newtons, ...)
If the header above contains a line with 'inDegrees', this indicates whether rotational values are in degrees (yes) or radians (no).

endheader
time	pelvis_tilt	pelvis_list	pelvis_rotation	pelvis_tx	pelvis_ty	pelvis_tz	hip_flexion_r	hip_adduction_r	hip_rotation_r	knee_angle_r	knee_angle_r_beta	ankle_angle_r	subtalar_angle_r	mtp_angle_r	hip_flexion_l	hip_adduction_l	hip_rotation_l	knee_angle_l	knee_angle_l_beta	ankle_angle_l	subtalar_angle_l	mtp_angle_l	lumbar_extension	lumbar_bending	lumbar_rotation	arm_flex_r	arm_add_r	arm_rot_r	elbow_flex_r	pro_sup_r	arm_flex_l	arm_add_l	arm_rot_l	elbow_flex_l	pro_sup_l
      0.00000000	      3.77538178	      0.24101506	      2.60945639	     -0.91741779	      1.25439341	     -0.06494529	     -2.32901244	      0.23858875	      3.49860738	      7.78586053	      0.13588890	      4.27505727	     -8.65180976	     -5.70109422	     -2.18022082	     -1.99644801	      2.86045225	      5.97266614	      0.10424269	      6.45153282	      0.50711603	     -5.70109422	    -11.55662536	      2.43724145	     -2.36718407	     10.01969642	     -9.21036634	     24.24598124	     32.07690248	     74.74304501	      2.06675777	    -10.17427839	      8.46730933	     41.91852507	     74.86784960
      0.00166670	      3.06855992	      0.56970074	      3.20925102	     -0.91564453	      1.25050859	     -0.06834662	     -2.06884491	      0.04067598	      4.37449066	      6.87687920	      0.12002418	      6.53087322	     -7.49851070	     -6.30553758	     -1.55584691	     -1.22616836	      4.27140256	      5.81561078	      0.10150156	      5.49970882	      0.28741414	     -6.30553758	     -9.73473440	      2.28552900	     -2.26076903	      9.10682271	     -9.30549946	     21.98671403	     33.82946085	     79.96942489	      2.36017475	     -9.93708433	      8.07360504	     42.49829033	     79.61678469
      0.00333330	      2.52452044	      0.97168816	      3.03399665	     -0.90972287	      1.25056537	     -0.07086183	     -2.21802475	     -0.49401399	      4.14082421	      5.89949847	      0.10296567	      6.57972289	     -7.41872473	     -6.31329681	     -1.34351314	     -0.65006014	      4.25718091	      5.58772368	      0.09752418	      5.09882180	      0.50590417	     -6.31329681	     -8.62271605	      1.71636410	     -2.12518154	      8.97249211	     -9.24521195	     21.96205062	     34.25904805	     80.03003757	      2.33893203	    -10.11283045	      7.90688649	     42.62376010	     79.62001172
      0.00500000	      2.66346475	      1.15550946	      3.02960100	     -0.90841922	      1.25572072	     -0.07170155	     -2.74957178	     -0.82954051	      3.72216793	      5.44565098	      0.09504454	      6.76564048	     -6.56951796	     -6.38393506	     -2.02954987	     -0.32266585	      4.85321760	      4.84903324	      0.08463160	      4.57221910	     -0.11423632	     -6.38393506	     -8.67464894	      1.51089131	     -1.78349200	      8.12055667	     -9.32204752	     20.15799826	     36.02795757	     80.54069872	      2.20523612	     -9.68963241	      6.43181176	     42.94867990	     79.98728807
      0.00666670	      2.86998637	      1.17795938	      2.98084476	     -0.90982447	      1.25246866	     -0.07263401	     -3.10791236	     -0.92151480	      3.87973634	      5.19876724	      0.09073561	      6.69546787	     -6.74957000	     -6.55010693	     -2.49836978	     -0.22664779	      5.06496966	      4.46245173	      0.07788448	      4.62896485	     -0.43219774	     -6.55010693	     -8.95121670	      1.53737975	     -1.51705820	      7.61685519	     -9.09718521	     18.05926177	     37.15792197	     81.85182864	      2.11634101	     -9.28497385	      5.26903230	     43.51103987	     81.11949037
      0.00833330	      3.16556465	      1.23630106	      2.96801438	     -0.90998070	      1.25897647	     -0.07184044	     -3.56698305	     -1.01121552	      3.77075831	      4.94790677	      0.08635726	      6.25520656	     -6.72623838	     -6.58662290	     -2.97507565	     -0.12009956	      5.39532903	      4.10579640	      0.07165967	      4.41881433	     -0.88572547	     -6.58662290	     -9.32013455	      1.48602018	     -1.41500364	      7.49438232	     -8.91525822	     17.59756168	     37.49995163	     82.12635637	      2.27671424	     -8.95831034	      4.56326650	     43.48267887	     81.39719901
      0.01000000	      3.27116956	      1.25645651	      2.96939954	     -0.91050562	      1.26005559	     -0.07252680	     -3.80120936	     -1.07824640	      3.56160983	      4.64720719	      0.08110907	      5.93016446	     -6.82361148	     -6.66811030	     -3.16963562	     -0.07631062	      5.40098760	      3.86498623	      0.06745674	      4.35323128	     -0.94828390	     -6.66811030	     -9.49681664	      1.42166639	     -1.37498684	      7.43263668	     -8.78620070	     17.39368213	     37.88738888	     81.23292053	      2.41678431	     -8.74096477	      4.16423606	     43.82610502	     80.59981567
      0.01166670	      3.55173136	      1.27400031	      2.97942793	     -0.91090281	      1.26070199	     -0.07161089	     -4.17040065	     -1.10001270	      3.41961929	      4.37158430	      0.07629854	      5.54485653	     -7.00557104	     -6.69562285	     -3.50089951	     -0.07630462	      5.51101849	      3.71894039	      0.06490775	      4.22985054	     -1.18389696	     -6.69562285	     -9.94321672	      1.34834868	     -1.36221201	      7.52282009	     -8.63430044	     17.43663736	     38.01683520	     81.10101337	      2.70075472	     -8.63146458	      3.87642467	     44.10145299	     80.58905991
      0.01333330	      3.77548999	      1.30845120	      3.04730004	     -0.91122454	      1.25885548	     -0.07114213	     -4.47216710	     -1.10350853	      3.35588418	      4.10055729	      0.07156823	      5.29821194	     -7.21770986	     -6.64617598	     -3.71180220	     -0.09176187	      5.66604837	      3.67133480	      0.06407688	      4.16558204	     -1.38977525	     -6.64617598	    -10.35335071	      1.22906924	     -1.44868285	      7.64700365	     -8.48423191	     17.53822147	     38.25276361	     81.92488265	      2.80127066	     -8.58234880	      3.30860494	     44.71636232	     81.67814294
      0.01500000	      4.02210329	      1.34562738	      3.05015983	     -0.91179197	      1.26160235	     -0.07070006	     -4.73667359	     -1.09876644	      3.35196490	      3.89970671	      0.06806272	      5.00081748	     -7.26474840	     -6.62313196	     -3.96922535	     -0.12237920	      5.65089600	      3.56326206	      0.06219066	      4.05743322	     -1.07447509	     -6.62313196	    -10.90311901	      1.05771765	     -1.35547063	      7.52822203	     -8.39981277	     17.40889730	     38.93287811	     81.82651466	      2.85321706	     -8.63440493	      3.23539943	     45.60894573	     81.55885100
      0.01666670	      4.21133633	      1.37564323	      3.18381256	     -0.91185992	      1.26257070	     -0.07149067	     -4.98676812	     -1.09221328	      3.32735802	      3.69130828	      0.06442548	      4.76551861	     -7.29934761	     -6.66551949	     -4.11384519	     -0.11403309	      5.96625981	      3.57547266	      0.06240377	      3.88855868	     -1.33954531	     -6.66551949	    -11.10050785	      1.01557435	     -1.55489420	      7.75401972	     -8.26323610	     17.90001162	     38.58187641	     81.48051992	      3.12189978	     -8.62352459	      3.40624193	     45.44203038	     81.54181535
      0.01833330	      4.41139067	      1.41242585	      3.20750058	     -0.91216966	      1.25957433	     -0.07201223	     -5.17103333	     -1.08500889	      3.37844492	      3.75285054	      0.06549960	      4.57400228	     -7.54401428	     -6.72716177	     -4.29885247	     -0.09731890	      5.98259095	      3.58461423	      0.06256332	      3.81705481	     -1.31456813	     -6.72716177	    -11.37390251	      0.89615784	     -1.62033334	      7.82473062	     -8.35113589	     18.72130828	     38.86958445	     80.46881937	      3.24650068	     -8.78196015	      3.99312479	     45.81054000	     81.12172218
      0.02000000	      4.60673116	      1.44422133	      3.25134391	     -0.91242168	      1.26201152	     -0.07006100	     -5.36667912	     -1.07145107	      3.39058305	      3.75694982	      0.06557114	      4.49435116	     -7.48225865	     -6.79656182	     -4.45023392	     -0.11622139	      6.08041981	      3.64890124	      0.06368534	      3.63350384	     -1.42224521	     -6.79656182	    -11.66750923	      0.77487046	     -1.74669205	      7.86135364	     -8.21618730	     18.81029930	     39.02112429	     79.45193623	      3.33317513	     -8.85055749	      4.01166451	     46.00705091	     80.31619341
